<svg width="24" height="24" viewBox="0 0 24 24" fill="none" xmlns="http://www.w3.org/2000/svg">
<path d="M12 0C8.81935 0.00634229 5.77079 1.27266 3.52172 3.52172C1.27266 5.77079 0.00634229 8.81935 0 12V22.116C0 22.6157 0.198492 23.0949 0.551811 23.4482C0.905129 23.8015 1.38433 24 1.884 24H12C15.1826 24 18.2348 22.7357 20.4853 20.4853C22.7357 18.2348 24 15.1826 24 12C24 8.8174 22.7357 5.76515 20.4853 3.51472C18.2348 1.26428 15.1826 0 12 0ZM12 22.08H1.92V12C1.92 10.0064 2.51118 8.0575 3.61879 6.39985C4.72639 4.7422 6.30067 3.45023 8.14255 2.68729C9.98443 1.92436 12.0112 1.72475 13.9665 2.11368C15.9218 2.50262 17.7179 3.46265 19.1276 4.87236C20.5373 6.28208 21.4974 8.07816 21.8863 10.0335C22.2753 11.9888 22.0756 14.0156 21.3127 15.8574C20.5498 17.6993 19.2578 19.2736 17.6001 20.3812C15.9425 21.4888 13.9936 22.08 12 22.08ZM13.44 12.48C13.44 12.7648 13.3555 13.0432 13.1973 13.28C13.0391 13.5168 12.8142 13.7014 12.5511 13.8104C12.2879 13.9194 11.9984 13.9479 11.7191 13.8923C11.4397 13.8368 11.1832 13.6996 10.9818 13.4982C10.7804 13.2968 10.6432 13.0403 10.5877 12.7609C10.5321 12.4816 10.5606 12.1921 10.6696 11.9289C10.7786 11.6658 10.9632 11.4409 11.2 11.2827C11.4368 11.1245 11.7152 11.04 12 11.04C12.3819 11.04 12.7482 11.1917 13.0182 11.4618C13.2883 11.7318 13.44 12.0981 13.44 12.48ZM7.68 12.48C7.68 12.7648 7.59555 13.0432 7.43732 13.28C7.27909 13.5168 7.05419 13.7014 6.79106 13.8104C6.52794 13.9194 6.2384 13.9479 5.95907 13.8923C5.67974 13.8368 5.42315 13.6996 5.22177 13.4982C5.02038 13.2968 4.88323 13.0403 4.82767 12.7609C4.77211 12.4816 4.80062 12.1921 4.90961 11.9289C5.0186 11.6658 5.20317 11.4409 5.43998 11.2827C5.67679 11.1245 5.95519 11.04 6.24 11.04C6.62191 11.04 6.98818 11.1917 7.25823 11.4618C7.52829 11.7318 7.68 12.0981 7.68 12.48ZM19.2 12.48C19.2 12.7648 19.1155 13.0432 18.9573 13.28C18.7991 13.5168 18.5742 13.7014 18.3111 13.8104C18.0479 13.9194 17.7584 13.9479 17.4791 13.8923C17.1997 13.8368 16.9432 13.6996 16.7418 13.4982C16.5404 13.2968 16.4032 13.0403 16.3477 12.7609C16.2921 12.4816 16.3206 12.1921 16.4296 11.9289C16.5386 11.6658 16.7232 11.4409 16.96 11.2827C17.1968 11.1245 17.4752 11.04 17.76 11.04C18.1419 11.04 18.5082 11.1917 18.7782 11.4618C19.0483 11.7318 19.2 12.0981 19.2 12.48Z" fill="#C0C0C0"/>
</svg>
