<svg width="24" height="24" viewBox="0 0 24 24" fill="none" xmlns="http://www.w3.org/2000/svg">
<path d="M20.0822 6.60568L20.0824 6.60585C20.2139 6.73572 20.3189 6.8914 20.3908 7.06405C20.4628 7.23668 20.5 7.42246 20.5 7.6104C20.5 7.61044 20.5 7.61048 20.5 7.61052V21.6C20.5 21.9747 20.3526 22.3319 20.0936 22.5937C19.8349 22.8551 19.4863 23 19.125 23H4.875C4.51373 23 4.16511 22.8551 3.90642 22.5937C3.64738 22.3319 3.5 21.9747 3.5 21.6V2.4C3.5 2.02534 3.64738 1.6681 3.90642 1.40634C4.16511 1.14493 4.51373 1 4.875 1H13.8524C13.8524 1 13.8525 1 13.8525 1C14.2084 1.00008 14.5521 1.14078 14.8097 1.39528C14.8097 1.3953 14.8098 1.39531 14.8098 1.39533L20.0822 6.60568Z" stroke="#82C3E8" stroke-width="2" stroke-linecap="round" stroke-linejoin="round"/>
<mask id="path-2-inside-1_2_32" fill="white">
<path d="M13.3854 1V5.8C13.3854 6.43652 13.6356 7.04697 14.081 7.49706C14.5264 7.94714 15.1305 8.2 15.7604 8.2H20.5104"/>
</mask>
<path d="M15.7604 8.2V10.2V8.2ZM11.3854 1V5.8H15.3854V1H11.3854ZM11.3854 5.8C11.3854 6.96023 11.8413 8.07712 12.6594 8.90385L15.5026 6.09027C15.43 6.01682 15.3854 5.9128 15.3854 5.8H11.3854ZM12.6594 8.90385C13.4783 9.73129 14.5933 10.2 15.7604 10.2V6.2C15.6678 6.2 15.5746 6.163 15.5026 6.09027L12.6594 8.90385ZM15.7604 10.2H20.5104V6.2H15.7604V10.2Z" fill="#82C3E8" mask="url(#path-2-inside-1_2_32)"/>
<line x1="7.45833" y1="13" x2="13.375" y2="13" stroke="#82C3E8" stroke-width="2" stroke-linecap="round"/>
<line x1="7.45833" y1="17" x2="16.3438" y2="17" stroke="#82C3E8" stroke-width="2" stroke-linecap="round"/>
</svg>
