<svg width="24" height="24" viewBox="0 0 24 24" fill="none" xmlns="http://www.w3.org/2000/svg">
<path d="M23.4464 9.76235L12.8078 0.457284C12.4619 0.154783 12.0065 -0.0089259 11.5366 0.000375732C11.0668 0.00967736 10.6189 0.19127 10.2866 0.507196L0.502125 9.80936L0 10.2867V24H9.42857V15.4437H14.5714V24H24V10.2466L23.4464 9.76235ZM11.5735 1.62981C11.5886 1.62981 11.5792 1.63292 11.5728 1.63898C11.5661 1.63292 11.5584 1.62981 11.5735 1.62981ZM22.2857 22.3702H16.2857V15.4437C16.2857 15.0114 16.1051 14.5969 15.7836 14.2912C15.4621 13.9856 15.0261 13.8139 14.5714 13.8139H9.42857C8.97392 13.8139 8.53788 13.9856 8.21639 14.2912C7.8949 14.5969 7.71429 15.0114 7.71429 15.4437V22.3702H1.71429V10.9618L11.5735 1.6596L11.5747 1.65782L22.2857 10.9618V22.3702Z" fill="#82C3E8"/>
</svg>
