<svg width="24" height="24" viewBox="0 0 24 24" fill="none" xmlns="http://www.w3.org/2000/svg">
<path d="M12 5.14306C11.1459 5.14306 10.3111 5.39442 9.60095 5.86536C8.89083 6.3363 8.33735 7.00566 8.01052 7.7888C7.68369 8.57194 7.59817 9.43369 7.76479 10.2651C7.93141 11.0965 8.34268 11.8601 8.94658 12.4595C9.55049 13.0589 10.3199 13.4671 11.1576 13.6325C11.9952 13.7978 12.8635 13.713 13.6525 13.3886C14.4415 13.0642 15.1159 12.5149 15.5904 11.81C16.0649 11.1052 16.3182 10.2766 16.3182 9.42894C16.3153 8.29312 15.8595 7.20463 15.0503 6.40149C14.2411 5.59834 13.1444 5.14589 12 5.14306ZM12 12.0005C11.4876 12.0005 10.9866 11.8496 10.5606 11.5671C10.1345 11.2845 9.80241 10.8829 9.60631 10.413C9.41021 9.94313 9.3589 9.42608 9.45887 8.92726C9.55885 8.42843 9.80561 7.97023 10.168 7.61059C10.5303 7.25096 10.992 7.00604 11.4945 6.90682C11.9971 6.8076 12.5181 6.85852 12.9915 7.05315C13.4649 7.24779 13.8696 7.57739 14.1543 8.00027C14.439 8.42316 14.5909 8.92034 14.5909 9.42894C14.5881 10.1101 14.3142 10.7625 13.8289 11.2442C13.3436 11.7258 12.6863 11.9976 12 12.0005ZM12 0C9.48132 0.0028359 7.06662 0.99715 5.28564 2.7648C3.50467 4.53246 2.50286 6.9291 2.5 9.42894C2.5 12.7934 4.06534 16.3613 7.03409 19.7365C8.36858 21.2653 9.86723 22.6449 11.5034 23.8509C11.6505 23.9481 11.8233 24 12 24C12.1767 24 12.3495 23.9481 12.4966 23.8509C14.1375 22.6468 15.64 21.267 16.9767 19.7365C19.9347 16.3613 21.5 12.7934 21.5 9.42894C21.4971 6.9291 20.4953 4.53246 18.7144 2.7648C16.9334 0.99715 14.5187 0.0028359 12 0ZM12 22.0723C10.2188 20.6794 4.22727 15.5577 4.22727 9.42894C4.22727 7.3829 5.04618 5.42067 6.50385 3.9739C7.96152 2.52714 9.93855 1.71435 12 1.71435C14.0615 1.71435 16.0385 2.52714 17.4961 3.9739C18.9538 5.42067 19.7727 7.3829 19.7727 9.42894C19.7727 15.5577 13.7813 20.6794 12 22.0723Z" fill="#82C3E8"/>
</svg>
